#N canvas 229 130 1536 830 10;
#X text 83 21 This patch sends a comprehensive set of midi test data
;
#X obj 53 217 bng 38 250 50 0 empty empty empty 17 7 0 10 -262144 -1
-1;
#X obj 52 390 makenote;
#X obj 57 429 noteout;
#X obj 55 338 counter;
#X floatatom 54 363 5 0 0 0 - - -, f 5;
#X msg 118 310 127;
#X msg 95 368 1;
#X obj 53 311 metro 100;
#X msg 120 271 stop;
#X obj 178 213 vsl 15 128 0 16 0 0 empty empty empty 0 -9 0 10 -262144
-1 -1 0 1;
#X floatatom 177 379 5 0 0 0 - - -, f 5;
#X text 168 181 channel #;
#X text 54 180 start;
#X text 112 182 stop;
#X obj 119 221 bng 38 250 50 0 empty empty empty 17 7 0 10 -262144
-1 -1;
#X obj 178 352 i;
#X text 65 131 NoteOn/NoteOff \, velocity;
#X obj 306 219 bng 38 250 50 0 empty empty empty 17 7 0 10 -262144
-1 -1;
#X obj 308 340 counter;
#X floatatom 305 368 5 0 0 0 - - -, f 5;
#X msg 373 273 stop;
#X obj 439 213 vsl 15 128 0 16 0 0 empty empty empty 0 -9 0 10 -262144
-1 -1 0 1;
#X floatatom 437 378 5 0 0 0 - - -, f 5;
#X text 429 188 channel #;
#X text 307 182 start;
#X text 365 184 stop;
#X obj 372 223 bng 38 250 50 0 empty empty empty 17 7 0 10 -262144
-1 -1;
#X obj 439 352 i;
#X obj 308 429 ctlout;
#X text 318 133 control change;
#X obj 530 220 bng 38 250 50 0 empty empty empty 17 7 0 10 -262144
-1 -1;
#X obj 532 341 counter;
#X floatatom 531 366 5 0 0 0 - - -, f 5;
#X msg 595 313 127;
#X obj 530 314 metro 100;
#X msg 597 274 stop;
#X text 531 183 start;
#X text 589 185 stop;
#X obj 596 224 bng 38 250 50 0 empty empty empty 17 7 0 10 -262144
-1 -1;
#X obj 650 210 vsl 15 128 0 16 0 0 empty empty empty 0 -9 0 10 -262144
-1 -1 7800 1;
#X floatatom 649 370 5 0 0 0 - - -, f 5;
#X obj 650 349 i;
#X obj 533 393 bendout;
#X text 633 183 channel #;
#X text 554 130 pitchbend;
#X obj 762 227 bng 38 250 50 0 empty empty empty 17 7 0 10 -262144
-1 -1;
#X obj 764 348 counter;
#X floatatom 763 373 5 0 0 0 - - -, f 5;
#X msg 827 320 127;
#X obj 762 321 metro 100;
#X msg 829 281 stop;
#X text 763 190 start;
#X text 821 192 stop;
#X obj 828 231 bng 38 250 50 0 empty empty empty 17 7 0 10 -262144
-1 -1;
#X obj 882 217 vsl 15 128 0 16 0 0 empty empty empty 0 -9 0 10 -262144
-1 -1 0 1;
#X floatatom 881 377 5 0 0 0 - - -, f 5;
#X obj 882 356 i;
#X text 865 190 channel #;
#X obj 765 400 pgmout;
#X text 786 137 program change;
#X obj 1000 226 bng 38 250 50 0 empty empty empty 17 7 0 10 -262144
-1 -1;
#X obj 1002 347 counter;
#X floatatom 1001 372 5 0 0 0 - - -, f 5;
#X msg 1065 319 127;
#X obj 1000 320 metro 100;
#X msg 1067 280 stop;
#X text 1001 189 start;
#X text 1059 191 stop;
#X obj 1066 230 bng 38 250 50 0 empty empty empty 17 7 0 10 -262144
-1 -1;
#X obj 1120 216 vsl 15 128 0 16 0 0 empty empty empty 0 -9 0 10 -262144
-1 -1 3300 1;
#X floatatom 1119 376 5 0 0 0 - - -, f 5;
#X obj 1120 355 i;
#X text 1103 189 channel #;
#X text 1024 136 channel pressure;
#X obj 1004 399 touchout;
#X obj 1248 214 bng 38 250 50 0 empty empty empty 17 7 0 10 -262144
-1 -1;
#X obj 1250 335 counter;
#X floatatom 1249 360 5 0 0 0 - - -, f 5;
#X msg 1313 307 127;
#X msg 1290 365 1;
#X obj 1248 308 metro 100;
#X msg 1315 268 stop;
#X obj 1373 210 vsl 15 128 0 16 0 0 empty empty empty 0 -9 0 10 -262144
-1 -1 2000 1;
#X floatatom 1368 377 5 0 0 0 - - -, f 5;
#X text 1363 178 channel #;
#X text 1249 177 start;
#X text 1307 179 stop;
#X obj 1314 218 bng 38 250 50 0 empty empty empty 17 7 0 10 -262144
-1 -1;
#X obj 1373 349 i;
#X text 1260 128 polyphonic key pressure;
#X msg 372 312 119;
#X obj 1252 403 polytouchout;
#X obj 306 312 metro 100;
#X connect 1 0 6 0;
#X connect 1 0 7 0;
#X connect 1 0 8 0;
#X connect 2 0 3 0;
#X connect 2 1 3 1;
#X connect 4 0 5 0;
#X connect 5 0 2 0;
#X connect 5 0 2 1;
#X connect 6 0 4 4;
#X connect 7 0 2 2;
#X connect 8 0 4 0;
#X connect 9 0 8 0;
#X connect 10 0 16 0;
#X connect 11 0 3 2;
#X connect 15 0 9 0;
#X connect 16 0 11 0;
#X connect 18 0 91 0;
#X connect 18 0 93 0;
#X connect 19 0 20 0;
#X connect 20 0 29 1;
#X connect 20 0 29 0;
#X connect 21 0 93 0;
#X connect 22 0 28 0;
#X connect 23 0 29 2;
#X connect 27 0 21 0;
#X connect 28 0 23 0;
#X connect 31 0 34 0;
#X connect 31 0 35 0;
#X connect 32 0 33 0;
#X connect 33 0 43 0;
#X connect 34 0 32 4;
#X connect 35 0 32 0;
#X connect 36 0 35 0;
#X connect 39 0 36 0;
#X connect 40 0 42 0;
#X connect 41 0 43 1;
#X connect 42 0 41 0;
#X connect 46 0 49 0;
#X connect 46 0 50 0;
#X connect 47 0 48 0;
#X connect 48 0 59 0;
#X connect 49 0 47 4;
#X connect 50 0 47 0;
#X connect 51 0 50 0;
#X connect 54 0 51 0;
#X connect 55 0 57 0;
#X connect 56 0 59 1;
#X connect 57 0 56 0;
#X connect 61 0 64 0;
#X connect 61 0 65 0;
#X connect 62 0 63 0;
#X connect 63 0 75 0;
#X connect 64 0 62 4;
#X connect 65 0 62 0;
#X connect 66 0 65 0;
#X connect 69 0 66 0;
#X connect 70 0 72 0;
#X connect 71 0 75 1;
#X connect 72 0 71 0;
#X connect 76 0 79 0;
#X connect 76 0 80 0;
#X connect 76 0 81 0;
#X connect 77 0 78 0;
#X connect 78 0 92 0;
#X connect 78 0 92 1;
#X connect 79 0 77 4;
#X connect 81 0 77 0;
#X connect 82 0 81 0;
#X connect 83 0 89 0;
#X connect 84 0 92 2;
#X connect 88 0 82 0;
#X connect 89 0 84 0;
#X connect 91 0 19 4;
#X connect 93 0 19 0;
